<?xml version="1.0" standalone="no"?>
<!DOCTYPE svg PUBLIC "-//W3C//DTD SVG 20010904//EN"
 "http://www.w3.org/TR/2001/REC-SVG-20010904/DTD/svg10.dtd">
<svg version="1.0" xmlns="http://www.w3.org/2000/svg"
 width="1714.000000pt" height="1714.000000pt" viewBox="0 0 1714.000000 1714.000000"
 preserveAspectRatio="xMidYMid meet">
<metadata>
Created by potrace 1.14, written by Peter Selinger 2001-2017
</metadata>
<g transform="translate(0.000000,1714.000000) scale(0.100000,-0.100000)"
fill="#000000" stroke="none">
<path d="M6819 15534 c-525 -528 -466 -473 -502 -464 -18 5 -48 11 -67 14 -19
3 -45 8 -56 10 -12 2 -37 7 -55 10 -69 12 -92 16 -169 31 -14 3 -41 8 -60 11
-19 3 -42 7 -50 9 -8 2 -31 7 -50 10 -19 3 -60 10 -90 17 -30 6 -66 12 -80 13
-47 6 -103 17 -126 25 -16 7 -29 3 -51 -13 -49 -37 -218 -205 -212 -212 4 -3
15 -7 25 -9 11 -2 37 -9 59 -14 22 -6 56 -13 75 -16 19 -3 46 -8 60 -11 14 -3
41 -8 60 -11 19 -3 38 -8 41 -10 3 -2 19 -5 35 -8 93 -16 129 -23 152 -30 9
-3 31 -8 47 -11 67 -11 93 -17 150 -30 33 -7 78 -16 99 -19 22 -4 41 -8 43
-10 3 -3 -444 -456 -1207 -1222 -215 -215 -396 -397 -404 -403 -14 -11 -32 -7
-123 30 -13 5 -33 13 -45 18 -33 13 -62 24 -68 25 -8 2 -102 36 -125 46 -11 5
-47 18 -81 29 -33 11 -78 26 -100 34 -58 22 -79 29 -79 25 -1 -2 -13 5 -28 15
-15 9 -27 15 -27 13 0 -3 -32 8 -71 25 -40 16 -79 29 -88 29 -9 0 -44 -26 -77
-58 -34 -31 -99 -92 -144 -135 -72 -67 -88 -91 -62 -92 4 -1 17 -6 30 -13 12
-7 22 -10 22 -7 0 3 12 0 28 -8 15 -8 41 -20 57 -27 17 -7 42 -19 58 -27 15
-8 27 -11 27 -8 0 3 12 0 28 -8 33 -18 98 -44 237 -97 11 -4 31 -12 45 -17 14
-6 30 -11 35 -13 6 -1 24 -9 40 -17 55 -29 65 -33 74 -33 5 0 31 -10 58 -22
26 -12 51 -21 56 -20 4 1 7 -1 7 -4 0 -4 -288 -295 -639 -648 -352 -352 -812
-815 -1023 -1028 -211 -214 -391 -388 -399 -388 -7 0 -36 18 -64 40 -27 21
-79 58 -115 82 -35 24 -85 57 -110 75 -25 18 -83 58 -130 89 -47 31 -98 69
-115 84 -16 15 -61 47 -100 70 -38 24 -80 52 -92 63 l-21 19 -88 -84 c-49 -45
-107 -101 -130 -123 -22 -22 -64 -62 -93 -88 -28 -26 -51 -50 -51 -53 0 -3 9
-15 20 -27 20 -21 47 -42 178 -133 28 -20 52 -40 52 -44 0 -4 24 -24 53 -44
53 -37 119 -87 172 -131 50 -40 117 -92 165 -126 98 -70 108 -46 -108 -263
-105 -105 -356 -357 -557 -561 -202 -203 -439 -442 -526 -530 l-159 -161 35
-38 c19 -21 35 -40 35 -42 0 -2 18 -21 40 -43 22 -21 40 -41 40 -44 0 -6 98
-107 104 -107 4 0 202 200 336 340 40 41 145 149 233 240 151 154 613 630 809
833 l86 88 46 -33 c26 -18 72 -54 103 -80 31 -27 59 -48 63 -48 4 0 23 -15 42
-32 34 -31 62 -52 164 -124 25 -17 50 -39 57 -47 12 -17 84 -71 175 -132 28
-20 52 -40 52 -44 0 -5 17 -20 38 -32 20 -12 56 -39 78 -60 23 -20 55 -44 70
-52 16 -8 38 -24 48 -36 10 -11 39 -32 62 -46 24 -14 44 -30 44 -35 0 -5 26
-28 58 -50 98 -70 156 -114 186 -143 16 -15 33 -27 38 -27 5 0 27 -17 51 -39
23 -21 60 -50 82 -65 22 -14 67 -48 100 -76 33 -27 85 -68 115 -90 81 -59 131
-97 170 -130 51 -43 118 -95 170 -131 25 -18 50 -37 55 -43 6 -7 20 -19 33
-27 l22 -16 -96 -119 c-53 -65 -117 -145 -143 -177 -25 -32 -91 -114 -146
-182 -55 -67 -152 -187 -215 -265 -63 -79 -160 -198 -215 -265 -55 -67 -113
-140 -130 -161 -16 -21 -64 -79 -105 -130 -41 -50 -88 -108 -105 -129 -16 -21
-73 -91 -125 -155 -52 -64 -138 -170 -190 -235 -52 -65 -100 -123 -105 -129
-22 -23 -45 -61 -45 -73 0 -7 20 -33 45 -59 25 -25 45 -48 45 -50 0 -3 19 -25
42 -49 24 -23 79 -83 123 -131 44 -49 92 -100 107 -115 16 -15 28 -32 28 -38
0 -6 4 -11 9 -11 6 0 105 123 222 273 117 149 231 295 253 323 23 29 58 74 78
100 21 27 132 171 248 319 116 149 225 289 243 312 17 23 73 95 124 160 225
288 332 426 388 499 33 43 72 91 86 108 l26 29 37 -22 c20 -12 36 -26 36 -29
0 -4 17 -18 38 -31 20 -14 53 -39 72 -57 19 -17 53 -44 75 -58 48 -31 123 -88
149 -113 20 -19 102 -82 176 -134 25 -18 56 -43 70 -56 14 -12 45 -38 68 -55
24 -18 72 -54 105 -80 34 -26 82 -62 107 -79 25 -18 51 -39 57 -47 12 -14 47
-42 153 -117 23 -16 63 -48 89 -70 27 -22 70 -57 97 -77 27 -20 69 -53 94 -72
25 -20 70 -54 100 -76 30 -22 80 -61 110 -85 30 -25 80 -63 110 -84 31 -21 62
-47 70 -57 8 -9 38 -32 65 -51 28 -18 77 -56 110 -83 33 -27 85 -68 115 -90
93 -68 134 -99 170 -130 50 -42 118 -94 170 -131 25 -18 62 -47 83 -66 20 -18
41 -33 45 -33 5 0 24 -14 43 -31 39 -35 120 -99 186 -146 25 -17 57 -42 72
-56 14 -13 46 -38 71 -56 25 -17 68 -49 95 -71 91 -73 197 -155 243 -187 25
-18 48 -36 51 -41 3 -5 27 -24 52 -43 106 -79 172 -130 202 -155 l31 -26 -18
-32 c-10 -17 -30 -53 -45 -81 -40 -73 -126 -228 -231 -415 -51 -91 -117 -210
-148 -265 -30 -55 -74 -134 -97 -175 -23 -41 -79 -142 -124 -225 -46 -82 -91
-163 -101 -180 -10 -16 -29 -50 -43 -75 -35 -66 -110 -201 -227 -410 -57 -102
-144 -257 -193 -345 -49 -88 -127 -230 -174 -315 -47 -85 -88 -159 -92 -165
-5 -5 -25 -41 -46 -80 -21 -38 -80 -146 -131 -239 -52 -92 -94 -173 -94 -178
0 -6 10 -21 23 -33 12 -12 51 -55 87 -95 36 -41 88 -98 115 -128 86 -92 98
-106 165 -182 36 -40 88 -97 115 -125 28 -29 79 -86 115 -126 36 -40 79 -87
95 -104 17 -17 43 -46 58 -64 15 -19 29 -32 31 -30 5 5 71 133 226 434 113
221 211 411 377 735 118 229 261 508 385 750 168 326 291 566 391 760 160 311
272 530 332 647 65 128 55 124 148 50 124 -100 230 -181 309 -237 31 -22 58
-43 60 -48 1 -4 21 -21 44 -38 23 -16 76 -56 118 -89 131 -102 199 -154 245
-188 25 -17 53 -40 62 -49 10 -10 38 -32 62 -50 24 -18 79 -60 122 -93 43 -33
102 -78 131 -100 122 -92 170 -130 179 -140 6 -7 26 -22 45 -35 19 -13 51 -37
71 -54 19 -17 55 -46 80 -63 48 -36 135 -102 225 -173 31 -25 81 -63 110 -85
29 -22 87 -67 129 -100 43 -33 98 -74 123 -92 25 -18 48 -36 51 -41 3 -4 33
-28 66 -52 33 -24 65 -49 70 -55 6 -7 26 -22 45 -35 19 -13 51 -37 71 -54 19
-17 55 -46 80 -63 24 -18 72 -54 106 -80 34 -27 87 -68 119 -92 32 -24 65 -50
73 -57 9 -7 32 -26 53 -41 20 -15 71 -55 113 -88 43 -33 102 -78 131 -100 29
-22 87 -67 130 -100 42 -33 91 -71 109 -85 17 -14 67 -52 109 -85 130 -101
199 -154 245 -188 24 -17 63 -48 86 -67 23 -19 74 -60 114 -90 40 -30 99 -76
132 -102 33 -27 67 -48 74 -48 9 0 22 27 35 73 12 39 29 97 40 127 17 50 115
357 177 555 13 44 33 105 43 135 10 30 35 107 55 170 l36 115 -28 23 c-15 12
-80 59 -143 103 -63 44 -169 118 -235 165 -66 47 -165 116 -220 155 -55 38
-146 102 -203 142 -56 39 -155 109 -220 154 -149 106 -293 207 -435 307 -62
44 -161 114 -220 155 -60 42 -153 108 -208 146 -55 39 -152 107 -217 152 -64
46 -164 116 -222 157 -58 41 -145 102 -195 136 -49 34 -106 75 -125 90 -19 15
-75 55 -125 89 -49 34 -136 94 -193 134 -56 39 -155 109 -220 154 -64 46 -164
116 -222 157 -58 41 -143 101 -190 133 -47 32 -122 85 -167 118 -75 55 -287
203 -323 225 -16 10 -24 -6 228 485 60 116 160 311 224 435 64 124 160 311
213 415 144 280 277 541 365 710 42 83 128 249 190 370 62 121 150 292 195
380 45 88 138 268 205 400 68 132 153 299 190 370 132 254 284 551 308 600 13
28 28 55 34 62 7 8 57 -8 191 -63 145 -60 471 -190 582 -234 11 -4 31 -12 45
-17 14 -6 36 -15 50 -20 14 -6 39 -16 55 -23 33 -14 68 -28 103 -41 44 -17 68
-27 115 -48 27 -12 83 -35 125 -52 76 -29 88 -34 147 -59 17 -7 40 -17 53 -21
12 -5 32 -13 45 -18 12 -4 34 -13 50 -20 15 -6 37 -15 50 -20 29 -11 66 -26
97 -39 14 -5 93 -37 175 -70 83 -33 470 -189 860 -347 391 -158 777 -314 858
-347 82 -33 150 -58 151 -56 2 3 29 88 31 98 1 9 86 272 110 345 60 179 85
267 80 275 -4 6 -14 10 -24 10 -9 0 -21 4 -26 8 -6 5 -64 28 -130 51 -66 24
-129 47 -140 51 -11 5 -65 25 -120 45 -113 41 -310 113 -340 125 -198 75 -293
110 -460 170 -110 39 -209 75 -220 80 -22 8 -197 74 -375 140 -131 49 -270
100 -285 104 -11 3 -41 14 -70 26 -11 4 -63 24 -115 43 -52 19 -104 38 -115
43 -11 4 -24 8 -30 10 -5 1 -95 34 -200 74 -104 39 -194 73 -200 74 -11 3 -9
3 -165 61 -63 24 -155 57 -205 75 -49 18 -99 36 -110 40 -11 4 -74 28 -140 54
-66 25 -124 46 -128 46 -4 0 -23 7 -43 15 l-35 14 84 163 c46 90 140 271 207
403 118 231 200 391 383 746 47 92 134 261 193 375 59 115 142 277 184 359 42
83 127 247 187 365 61 118 141 274 178 346 l67 130 82 -17 c44 -10 95 -21 111
-23 17 -3 41 -8 55 -11 41 -9 123 -26 150 -31 14 -2 54 -11 90 -19 36 -8 79
-16 95 -19 36 -7 27 -5 250 -51 226 -46 216 -45 308 -61 10 -2 26 -5 35 -8 9
-3 28 -7 42 -10 14 -3 57 -11 95 -19 39 -8 162 -34 275 -57 113 -23 214 -43
225 -46 30 -6 167 -34 190 -38 24 -5 376 -77 390 -81 18 -4 80 -15 105 -19 14
-3 26 -5 28 -7 3 -2 10 -4 67 -14 28 -4 55 -9 60 -11 6 -1 33 -7 60 -13 28 -6
59 -12 70 -15 23 -5 209 -43 245 -50 14 -2 50 -10 80 -16 30 -6 66 -13 79 -16
13 -3 52 -11 86 -18 l62 -13 28 86 c15 47 41 129 57 181 17 52 39 119 49 149
15 40 17 57 8 67 -6 7 -14 13 -17 12 -6 -2 -56 6 -117 18 -11 2 -33 6 -50 9
-16 3 -41 8 -55 10 -14 3 -36 8 -50 10 -14 3 -41 8 -60 10 -19 3 -46 8 -60 11
-14 3 -36 8 -50 10 -26 5 -276 50 -320 58 -14 3 -50 9 -80 15 -30 6 -66 12
-80 15 -14 2 -36 7 -50 10 -14 3 -41 8 -60 11 -19 2 -46 7 -60 10 -14 2 -36 7
-50 10 -14 2 -38 7 -55 10 -59 10 -90 15 -115 20 -64 13 -77 16 -105 20 -16 3
-41 8 -55 10 -14 3 -36 8 -50 10 -14 3 -41 8 -60 11 -19 3 -141 25 -270 49
-129 24 -251 46 -270 49 -19 3 -46 8 -60 11 -35 8 -119 23 -160 30 -19 3 -46
8 -60 10 -59 12 -77 15 -105 20 -16 3 -41 8 -55 10 -14 3 -36 8 -50 10 -14 3
-41 8 -60 11 -27 4 -111 20 -150 29 -3 1 -32 5 -65 10 -33 5 -62 9 -65 10 -8
2 -72 15 -100 19 -14 3 -25 5 -25 6 0 1 -11 3 -25 5 -14 2 -53 9 -88 15 l-62
12 104 202 c57 110 150 291 206 401 56 110 145 283 198 385 123 239 134 261
130 265 -5 5 -62 13 -223 30 -150 16 -208 23 -255 30 -203 29 -193 30 -212
-12 -10 -21 -41 -81 -71 -133 -29 -52 -78 -138 -107 -190 -60 -107 -126 -225
-175 -315 -18 -33 -46 -84 -64 -113 -17 -29 -31 -55 -31 -59 0 -3 -17 -33 -37
-66 -20 -34 -49 -84 -64 -112 -100 -187 -99 -187 -128 -180 -14 4 -37 9 -51
11 -22 4 -96 18 -155 29 -11 2 -47 8 -80 14 -102 18 -119 21 -141 25 -12 2
-37 7 -55 10 -19 3 -45 8 -59 11 -14 3 -37 7 -52 10 -16 3 -40 7 -55 10 -27 5
-48 9 -103 20 -14 2 -38 7 -55 10 -47 8 -85 15 -145 26 -30 6 -66 12 -80 15
-14 2 -36 7 -50 9 -61 13 -77 16 -102 20 -16 3 -43 7 -60 10 -18 3 -91 16
-163 30 -71 13 -146 26 -165 29 -19 3 -46 8 -60 11 -27 6 -107 21 -155 30 -16
2 -40 7 -51 9 -12 2 -37 7 -55 10 -19 3 -45 8 -59 11 -14 3 -50 9 -80 15 -60
10 -102 18 -140 25 -64 13 -77 16 -105 20 -16 3 -41 8 -55 10 -14 3 -36 8 -50
10 -14 3 -41 8 -60 11 -19 3 -105 18 -190 34 -85 16 -168 31 -185 33 -16 3
-52 10 -80 16 -27 6 -66 13 -85 15 -19 3 -46 8 -60 11 -14 2 -36 7 -50 10 -14
2 -38 7 -55 10 -124 21 -248 45 -252 48 -2 2 33 49 80 107 29 36 117 149 153
196 21 28 68 88 104 134 36 45 76 97 90 115 82 108 154 201 159 205 3 3 26 32
51 65 24 33 59 78 77 99 31 37 43 69 26 64 -8 -2 -145 12 -177 18 -11 2 -42 6
-70 9 -28 3 -71 7 -96 11 -103 13 -99 13 -123 -20 -12 -17 -29 -40 -38 -51
-10 -11 -63 -76 -118 -145 -172 -212 -311 -384 -421 -519 -58 -71 -118 -146
-134 -166 -31 -41 -36 -41 -171 -12 -16 3 -47 9 -69 12 -21 3 -41 7 -45 9 -3
2 -26 7 -51 10 -25 3 -56 8 -70 11 -14 3 -36 7 -50 10 -14 3 -35 7 -46 9 -12
2 -37 7 -55 10 -19 3 -45 8 -59 11 -14 3 -50 9 -80 15 -30 5 -64 11 -75 13
-31 7 -108 20 -130 23 -11 1 -56 10 -100 19 -44 9 -91 18 -105 19 -14 2 -41 7
-60 12 -19 4 -42 8 -50 9 -8 1 -31 5 -50 8 -19 4 -47 9 -63 11 -15 3 -35 7
-45 10 -9 3 -35 7 -57 11 -22 3 -47 7 -55 10 -8 2 -33 6 -55 10 -22 3 -47 7
-55 10 -8 2 -31 6 -50 9 -19 3 -46 8 -60 11 -14 3 -41 8 -60 11 -19 3 -42 7
-50 9 -8 3 -33 7 -55 10 -22 4 -47 8 -55 10 -8 2 -31 7 -50 10 -19 3 -57 10
-85 15 -27 5 -63 11 -80 14 -16 3 -72 13 -123 22 l-93 17 23 22 c13 12 112
114 220 226 109 112 272 280 363 374 91 93 165 173 165 177 0 4 -10 8 -22 9
-13 0 -32 2 -43 4 -11 3 -38 6 -60 9 -75 8 -150 17 -171 21 -16 4 -88 -63
-335 -311z m-299 -805 c30 -6 64 -12 75 -13 11 -1 29 -5 40 -9 11 -3 36 -8 55
-11 44 -7 77 -14 98 -20 16 -5 33 -8 107 -21 17 -3 38 -8 47 -11 18 -5 48 -12
93 -19 17 -3 62 -12 101 -21 39 -8 77 -17 85 -18 39 -8 87 -16 109 -20 14 -2
45 -9 70 -15 52 -11 73 -16 155 -31 33 -6 74 -15 90 -20 17 -5 46 -11 65 -13
19 -3 63 -12 98 -20 34 -9 65 -15 67 -16 3 0 20 -3 38 -6 17 -3 43 -7 57 -9
14 -2 43 -9 65 -14 22 -6 54 -13 70 -16 17 -2 50 -9 75 -14 122 -27 200 -43
254 -53 33 -5 63 -12 67 -14 3 -3 24 -7 45 -10 22 -4 46 -8 54 -10 8 -2 29 -7
45 -10 17 -2 41 -7 55 -11 14 -3 31 -6 38 -6 20 -2 15 -12 -40 -80 -29 -36
-66 -82 -83 -103 -16 -21 -64 -80 -105 -130 -41 -50 -88 -109 -105 -130 -16
-21 -65 -82 -108 -134 -44 -53 -90 -109 -103 -126 -13 -16 -58 -73 -101 -125
-43 -53 -91 -113 -108 -134 -16 -22 -66 -83 -110 -136 -44 -53 -90 -110 -103
-126 -27 -36 -213 -265 -347 -430 -55 -67 -151 -186 -214 -263 -63 -78 -120
-141 -128 -141 -7 0 -47 14 -90 31 -43 17 -83 32 -88 33 -10 1 -157 55 -210
76 -33 13 -60 23 -65 24 -5 1 -168 62 -207 77 -56 22 -72 28 -138 52 -38 14
-79 28 -90 33 -11 4 -22 8 -25 8 -6 1 -177 65 -210 78 -32 14 -50 20 -135 51
-38 14 -79 28 -90 32 -11 5 -24 9 -30 10 -5 2 -46 17 -90 35 -44 18 -87 33
-95 35 -8 2 -40 13 -70 25 -30 12 -116 44 -190 70 -74 26 -153 55 -175 63 -74
28 -80 30 -90 32 -5 2 -39 14 -75 28 -92 35 -104 40 -112 42 -5 2 -10 3 -12 4
-2 0 42 47 97 104 101 101 221 225 712 732 138 142 288 297 335 345 47 48 177
182 289 299 137 141 210 209 220 206 9 -2 41 -10 71 -16z m2761 -563 c20 -3
42 -8 50 -10 8 -3 25 -7 39 -10 24 -4 147 -29 200 -40 43 -9 74 -15 103 -20
15 -3 36 -7 46 -11 11 -3 35 -8 53 -10 18 -2 76 -14 128 -25 52 -11 106 -23
120 -25 49 -9 170 -35 190 -40 3 -1 28 -5 55 -10 58 -10 52 -9 90 -18 17 -4
41 -10 55 -12 14 -3 45 -10 70 -15 25 -5 54 -11 65 -14 11 -2 40 -7 65 -12 25
-4 47 -8 50 -9 4 -1 108 -24 135 -30 22 -4 81 -16 105 -19 14 -3 26 -5 28 -7
3 -2 10 -4 67 -14 28 -4 55 -9 60 -11 6 -1 35 -8 65 -14 30 -6 60 -13 65 -14
12 -3 69 -14 105 -20 14 -2 45 -9 70 -15 25 -5 56 -12 70 -15 32 -6 119 -24
145 -30 47 -10 272 -56 297 -60 15 -3 63 -12 105 -20 43 -9 87 -18 98 -20 11
-3 40 -9 65 -15 25 -5 56 -12 70 -15 68 -13 247 -48 265 -52 11 -3 43 -9 70
-15 28 -6 55 -12 60 -13 6 -1 24 -6 41 -10 l32 -7 -43 -77 c-23 -42 -64 -117
-92 -167 -27 -49 -88 -160 -135 -245 -47 -85 -105 -189 -128 -230 -23 -41 -66
-118 -95 -170 -29 -52 -74 -133 -100 -180 -27 -47 -70 -125 -98 -175 -27 -49
-69 -124 -92 -165 -65 -117 -156 -281 -180 -325 -51 -92 -136 -245 -175 -315
-23 -41 -66 -118 -95 -170 -85 -153 -229 -410 -265 -473 -20 -35 -38 -56 -45
-53 -7 2 -82 30 -167 61 -84 32 -189 70 -233 87 -44 16 -87 31 -95 33 -8 2
-123 45 -255 95 -132 51 -244 93 -250 94 -5 2 -17 6 -25 9 -8 3 -49 17 -90 32
-41 15 -82 29 -90 32 -8 3 -19 7 -25 9 -8 2 -423 157 -485 181 -8 4 -17 7 -20
7 -7 2 -131 46 -155 56 -29 12 -59 23 -65 24 -9 2 -134 47 -160 58 -44 18
-187 71 -200 74 -3 0 -13 4 -22 7 -10 4 -26 10 -35 13 -104 39 -464 174 -488
184 -11 4 -60 22 -110 40 -49 18 -99 36 -110 40 -20 8 -48 18 -63 21 -4 1 -38
15 -77 31 -38 16 -71 29 -72 29 -4 -1 -36 10 -58 19 -61 24 -201 75 -207 75
-5 0 -9 3 -10 6 -3 6 250 335 377 493 43 53 93 118 195 251 67 88 251 324 295
380 28 34 68 86 90 115 22 29 60 78 85 109 85 108 125 159 162 207 52 67 344
443 369 474 11 14 34 44 52 66 17 23 36 40 42 38 5 -2 26 -5 46 -8z m-4382
-1587 c218 -88 405 -164 416 -169 11 -5 74 -30 140 -55 158 -62 165 -65 198
-82 15 -8 27 -11 27 -7 0 3 6 2 13 -4 6 -6 44 -22 82 -37 84 -32 115 -45 136
-55 9 -5 86 -36 170 -70 198 -79 190 -76 219 -88 14 -6 79 -32 145 -57 158
-62 165 -65 198 -82 15 -8 27 -11 27 -7 0 3 11 -1 25 -10 13 -9 31 -16 38 -16
8 0 19 -6 25 -13 9 -10 2 -24 -26 -58 -20 -25 -50 -62 -67 -83 -16 -21 -74
-93 -128 -160 -181 -223 -262 -323 -292 -361 -16 -21 -75 -94 -130 -161 -55
-67 -149 -183 -210 -258 -60 -75 -155 -192 -210 -260 -151 -185 -322 -397
-347 -430 -13 -16 -59 -73 -103 -126 -44 -53 -90 -110 -103 -126 -34 -44 -186
-232 -297 -368 -55 -67 -113 -139 -130 -160 -56 -72 -137 -171 -151 -186 -12
-12 -18 -10 -46 17 -18 17 -76 60 -128 96 -249 168 -297 201 -320 222 -14 12
-59 43 -100 70 -41 26 -86 57 -100 70 -23 22 -74 57 -295 206 -49 33 -101 71
-115 84 -14 12 -59 44 -100 70 -41 26 -86 58 -100 70 -23 22 -100 75 -332 230
-53 35 -100 69 -103 76 -4 6 -46 36 -92 66 -47 30 -108 73 -136 95 -29 22 -81
59 -117 82 -36 23 -65 47 -65 53 0 11 132 150 485 513 47 48 198 203 335 345
138 142 288 297 335 345 47 48 198 203 335 345 138 141 288 297 335 345 47 48
120 124 164 169 43 44 83 81 89 81 5 0 188 -72 406 -161z m2397 -967 c19 -10
61 -28 99 -42 11 -5 52 -20 90 -35 39 -15 76 -31 83 -37 6 -6 12 -7 12 -4 0 4
12 1 28 -7 36 -19 24 -14 422 -173 190 -75 595 -238 900 -362 305 -123 857
-346 1225 -494 369 -149 675 -272 681 -275 11 -4 -5 -37 -126 -253 -86 -155
-133 -239 -192 -345 -31 -55 -76 -137 -101 -181 -25 -45 -59 -106 -74 -135
-16 -30 -76 -137 -133 -239 -57 -102 -122 -219 -145 -260 -23 -41 -66 -118
-95 -170 -86 -155 -133 -239 -192 -345 -31 -55 -77 -138 -104 -185 -26 -47
-59 -107 -74 -135 -14 -27 -73 -133 -130 -235 -57 -102 -122 -219 -145 -260
-23 -41 -65 -118 -95 -170 -30 -52 -72 -129 -95 -170 -23 -41 -88 -158 -145
-260 -57 -102 -113 -203 -125 -225 -12 -22 -45 -80 -72 -130 -27 -49 -67 -121
-88 -160 -21 -38 -44 -80 -52 -93 l-14 -22 -60 42 c-33 24 -106 75 -162 115
-56 40 -140 98 -186 129 -46 31 -112 77 -145 103 -34 26 -92 69 -131 94 -38
25 -117 80 -175 121 -58 42 -143 101 -190 132 -47 32 -105 74 -130 94 -25 21
-83 62 -130 93 -47 31 -132 90 -190 132 -58 41 -145 102 -195 135 -49 34 -108
76 -130 94 -22 18 -78 58 -125 90 -82 55 -159 108 -410 286 -211 149 -323 227
-410 286 -47 31 -100 70 -119 86 -18 16 -70 54 -115 84 -44 29 -128 87 -186
129 -58 41 -143 100 -190 131 -47 31 -105 73 -130 94 -25 20 -61 48 -81 61
l-37 24 47 61 c72 95 93 122 309 399 111 143 244 313 295 379 51 65 106 135
122 156 17 21 111 142 210 270 99 127 209 269 245 314 36 46 76 98 90 116 22
29 109 141 493 633 99 128 98 127 278 357 67 85 123 161 126 168 5 13 38 10
69 -6z"/>
<path d="M6968 14365 c-2 -1 -39 -5 -83 -8 -156 -12 -390 -74 -549 -146 -67
-30 -261 -136 -281 -153 -5 -5 -35 -27 -65 -49 -196 -145 -347 -355 -385 -537
-81 -381 235 -663 760 -677 118 -3 331 15 355 30 3 2 25 6 50 10 81 12 304 93
423 155 324 165 540 382 627 632 33 94 38 234 11 315 -25 79 -75 157 -135 214
-53 48 -159 119 -181 119 -8 0 -16 4 -19 9 -5 8 -119 46 -166 55 -14 3 -50 9
-80 15 -48 9 -275 22 -282 16z m172 -129 c118 -21 178 -39 255 -77 130 -63
221 -166 252 -282 26 -100 10 -203 -48 -318 -119 -237 -371 -431 -698 -539
-171 -56 -265 -73 -431 -76 -148 -2 -222 7 -335 41 -33 10 -62 19 -65 20 -3 0
-25 11 -49 24 -104 54 -176 126 -218 217 -23 49 -28 75 -30 151 -2 97 3 123
43 212 49 107 167 250 269 326 22 17 42 32 45 35 8 9 122 75 175 103 77 40
183 86 229 99 56 16 58 16 84 22 12 3 26 7 30 10 4 2 27 7 52 11 25 4 48 9 51
11 4 2 36 7 71 10 34 3 64 7 65 8 4 4 225 -3 253 -8z"/>
<path d="M9556 13566 c-55 -17 -101 -37 -104 -44 -2 -6 19 -51 46 -99 122
-218 333 -615 329 -620 -4 -4 -55 -18 -207 -58 -14 -3 -204 -57 -370 -105 -36
-10 -132 -37 -215 -60 -82 -22 -179 -50 -215 -60 -36 -10 -84 -24 -107 -30
-24 -6 -43 -15 -43 -20 0 -14 60 -164 69 -173 5 -5 28 -3 52 4 24 7 53 14 64
16 11 2 31 7 45 12 14 6 90 28 170 50 80 22 219 61 310 86 236 67 302 85 329
91 13 3 69 18 125 34 55 16 101 28 101 27 7 -11 164 -300 295 -542 89 -165
167 -306 173 -313 6 -8 19 -11 31 -7 22 6 44 12 76 20 11 3 29 7 40 10 11 3
28 7 38 10 9 3 38 10 65 17 26 6 47 15 47 20 0 5 -108 198 -240 429 -132 230
-240 423 -240 429 0 5 19 14 43 20 23 6 87 24 142 40 55 16 143 40 195 54 52
14 129 34 170 46 41 12 138 39 215 60 127 35 197 55 382 108 34 9 65 20 68 24
7 7 -97 162 -115 173 -6 4 -47 -5 -93 -19 -45 -14 -102 -31 -127 -37 -25 -7
-49 -14 -55 -15 -5 -2 -19 -5 -30 -8 -24 -6 -175 -49 -295 -83 -47 -14 -132
-37 -190 -53 -58 -16 -145 -40 -195 -55 -191 -57 -229 -65 -237 -52 -4 7 -96
168 -205 359 -159 279 -202 347 -218 347 -11 -1 -65 -15 -119 -33z"/>
<path d="M4445 12079 c-45 -15 -56 -18 -108 -31 l-48 -12 1 -390 c1 -315 -1
-390 -12 -392 -28 -6 -199 -53 -317 -88 -68 -20 -165 -47 -215 -60 -159 -42
-420 -117 -436 -125 -10 -6 -17 -33 -22 -92 -10 -106 -8 -111 34 -98 37 11 30
9 153 43 239 65 282 77 305 86 14 5 36 12 50 14 14 3 59 15 100 26 41 12 109
30 150 41 41 11 84 24 95 29 11 4 34 11 50 14 17 4 39 8 50 11 20 4 20 -1 20
-446 0 -248 3 -452 6 -454 7 -5 222 49 239 60 12 7 9 319 -6 756 l-5 157 53
12 c29 7 58 15 63 19 6 3 15 6 20 8 6 1 62 16 125 33 63 17 158 42 210 56 52
14 102 28 110 31 8 3 20 7 25 8 6 2 53 15 105 30 52 15 147 40 210 57 63 16
119 33 123 37 4 4 3 49 -4 99 -13 101 -12 100 -81 78 -51 -16 -199 -59 -318
-91 -109 -30 -279 -78 -350 -99 -30 -9 -66 -19 -80 -22 -14 -2 -54 -13 -90
-24 -124 -37 -117 -37 -122 12 -3 24 -6 142 -7 263 -2 121 -5 243 -6 270 -2
28 -4 80 -4 118 -1 73 -4 76 -66 56z"/>
<path d="M7858 10855 c-2 -1 -50 -5 -108 -8 -58 -4 -115 -8 -126 -11 -12 -2
-39 -7 -60 -10 -22 -4 -55 -11 -74 -16 -19 -5 -44 -11 -55 -13 -121 -22 -333
-108 -486 -198 -275 -160 -513 -409 -648 -677 -159 -317 -194 -696 -95 -1042
28 -95 111 -271 175 -370 36 -56 120 -158 184 -225 59 -61 171 -150 259 -205
89 -56 226 -128 273 -143 10 -4 36 -13 58 -21 57 -22 203 -63 248 -70 20 -3
54 -9 75 -12 20 -3 48 -7 62 -10 106 -19 385 -13 525 12 193 34 347 84 520
169 425 208 737 571 861 1000 34 119 44 186 51 325 9 206 -29 409 -116 611
-147 340 -462 639 -821 779 -47 18 -94 36 -105 41 -29 12 -154 46 -200 55 -22
4 -47 9 -55 10 -71 15 -333 37 -342 29z m167 -219 c127 -14 330 -65 386 -96
10 -5 45 -20 78 -35 214 -90 436 -294 569 -523 153 -262 188 -618 91 -915
-134 -411 -457 -727 -897 -878 -270 -92 -596 -109 -857 -43 -359 90 -642 288
-824 577 -182 287 -222 660 -107 994 171 498 689 878 1251 920 44 3 81 6 82 7
5 5 173 -2 228 -8z"/>
</g>
</svg>
